<svg width="198" height="35" viewBox="0 0 198 35" fill="none" xmlns="http://www.w3.org/2000/svg">
<path d="M9.84058 0.66748L0.135132 17.6321L10.138 34.4994L19.464 18.2245L17.0998 13.7653L10.0739 25.6529L5.26351 17.5834L12.5637 4.81377L9.84058 0.66748Z" fill="#2E3192"/>
<path d="M30.0463 0.13916H25.0128L33.8131 15.2063H26.059L15.0869 34.8608H30.3489L40.1467 17.5013L30.0463 0.13916ZM27.618 30.2478L22.7358 30.2402L28.6232 19.6372L33.4644 19.5885L27.618 30.2478Z" fill="#2E3192"/>
<path d="M14.7279 0.13916L20.9614 10.8369H26.2488L20.1717 0.13916H14.7279Z" fill="#F7941D"/>
<path d="M74.8558 6.49731V20.0796C74.8558 24.7123 71.1268 28.4501 66.4854 28.4501C61.8439 28.4501 58.0886 24.7123 58.0886 20.0796V6.49731H62.4668V20.0796C62.4668 22.2994 64.2655 24.0718 66.4941 24.0718C68.7227 24.0718 70.4863 22.2994 70.4863 20.0796V6.49731H74.8558Z" fill="#2E3192"/>
<path d="M94.0359 6.52368V28.4764L81.6469 16.7279V28.4764H77.2687V6.52368L89.6577 18.3073V6.52368H94.0359Z" fill="#2E3192"/>
<path d="M96.4488 28.4764V6.52368H100.827V28.4764H96.4488Z" fill="#2E3192"/>
<path d="M119.139 10.8756H113.374V28.4764H108.996V10.8756H103.231V6.53247H119.13V10.8756H119.139Z" fill="#2E3192"/>
<path d="M131.791 17.5001L131.501 18.0441V28.4677H127.123V18.0528L126.833 17.5088L120.911 6.53247H125.903L129.316 12.8761L132.73 6.53247H137.687L131.791 17.5001Z" fill="#2E3192"/>
<path d="M157.63 17.4386C157.63 23.4577 152.831 28.2834 146.882 28.4501V28.4852H139.451V6.53247H146.566C146.891 6.53247 147.181 6.53246 147.496 6.56756C153.156 7.00626 157.63 11.6477 157.63 17.4386ZM146.558 24.0982C150.26 24.0982 153.252 21.1413 153.252 17.4386C153.252 13.736 150.26 10.8756 146.558 10.8756H143.82V24.1069H146.558V24.0982Z" fill="#2E3192"/>
<path d="M159.403 17.4999C159.403 11.4195 164.36 6.427 170.476 6.427C176.591 6.427 181.549 11.4195 181.549 17.4999C181.549 23.6154 176.591 28.5728 170.476 28.5728C164.36 28.5728 159.403 23.6154 159.403 17.4999ZM163.781 17.4999C163.781 21.2026 166.773 24.1945 170.476 24.1945C174.178 24.1945 177.17 21.2026 177.17 17.4999C177.17 13.7972 174.178 10.8053 170.476 10.8053C166.773 10.8053 163.781 13.7972 163.781 17.4999Z" fill="#2E3192"/>
<path d="M191.586 17.5001L197.509 28.4764H192.516L189.103 22.1064L185.69 28.4764H180.733L186.62 17.5001L180.733 6.52368H185.69L189.103 12.8673L192.516 6.52368H197.509L191.586 17.5001Z" fill="#F7941D"/>
</svg>
