<svg width="25" height="25" viewBox="0 0 25 25" fill="none" xmlns="http://www.w3.org/2000/svg">
<g clip-path="url(#clip0_38_799)">
<path d="M20.1633 4.5V16.5H8.16333V4.5H20.1633ZM20.1633 2.5H8.16333C7.06333 2.5 6.16333 3.4 6.16333 4.5V16.5C6.16333 17.6 7.06333 18.5 8.16333 18.5H20.1633C21.2633 18.5 22.1633 17.6 22.1633 16.5V4.5C22.1633 3.4 21.2633 2.5 20.1633 2.5ZM12.6333 14.5L9.16333 11L10.5633 9.59L12.6333 11.67L17.7633 6.5L19.1633 7.91L12.6333 14.5ZM4.16333 6.5H2.16333V20.5C2.16333 21.6 3.06333 22.5 4.16333 22.5H18.1633V20.5H4.16333V6.5Z" fill="#2E3192"/>
</g>
<defs>
<clipPath id="clip0_38_799">
<rect width="24" height="24" fill="white" transform="translate(0.16333 0.5)"/>
</clipPath>
</defs>
</svg>
